<svg version="1.2" xmlns="http://www.w3.org/2000/svg" viewBox="0 0 340 200" width="340" height="200">
	<title>4-productive-time-svg</title>
	<defs>
		<filter x="-50%" y="-50%" width="200%" height="200%" id="f1" ><feDropShadow dx="0" dy="0" stdDeviation="2.0833333333333335" flood-color="#ffffbd" flood-opacity="1.5"/></filter>
	</defs>
	<style>
		.s0 { fill: #252334;stroke: #000000 } 
		.s1 { fill: #ff7372 } 
		.s2 { fill: #fcfcfc;stroke: #000000 } 
		.s3 { fill: none;stroke: #000000 } 
		.s4 { fill: #ffffff } 
		.s5 { fill: #fafafa } 
		.s6 { filter: url(#f1);fill: none;stroke: #000000 } 
		.s7 { fill: #dbdbdb } 
	</style>
	<path id="Layer" class="s0" d="m1 6c0-2.8 2.2-5 5-5h328c2.8 0 5 2.2 5 5v188c0 2.8-2.2 5-5 5h-328c-2.8 0-5-2.2-5-5z"/>
	<path id="Commits In The Last Month" class="s1" aria-label="Commits In The Last Month"  d="m37.5 26.3q-2.5 0-3.9 1.6-1.4 1.6-1.4 4.5 0 2.7 1.5 4.4 1.4 1.7 3.9 1.7 3.2 0 4.8-3.1l1.6 0.8q-0.9 2-2.6 3-1.7 1-3.9 1-2.3 0-4-0.9-1.6-1-2.5-2.7-0.9-1.8-0.9-4.2 0-3.7 2-5.7 1.9-2.1 5.4-2.1 2.4 0 4 1 1.6 0.9 2.4 2.8l-1.9 0.6q-0.6-1.3-1.7-2-1.2-0.7-2.8-0.7zm18.7 7.9q0 3-1.3 4.5-1.4 1.5-3.9 1.5-2.6 0-3.9-1.5-1.3-1.6-1.3-4.5 0-6 5.2-6 2.7 0 3.9 1.4 1.3 1.5 1.3 4.6zm-2 0q0-2.4-0.8-3.5-0.7-1.1-2.3-1.1-1.7 0-2.5 1.1-0.8 1.1-0.8 3.5 0 2.3 0.8 3.4 0.7 1.2 2.3 1.2 1.8 0 2.5-1.1 0.8-1.1 0.8-3.5zm13.1 5.8h-1.9v-7.4q0-1.7-0.5-2.3-0.5-0.6-1.7-0.6-1.2 0-1.9 0.9-0.7 0.9-0.7 2.7v6.7h-2v-9.1q0-2.1 0-2.5h1.8q0 0 0 0.3 0 0.2 0.1 0.5 0 0.3 0 1.2 0.7-1.3 1.5-1.8 0.8-0.4 1.9-0.4 1.3 0 2.1 0.5 0.8 0.5 1.1 1.7 0.6-1.2 1.5-1.7 0.8-0.5 2-0.5 1.8 0 2.6 0.9 0.8 1 0.8 3.2v7.7h-1.9v-7.4q0-1.7-0.5-2.3-0.4-0.6-1.6-0.6-1.3 0-2 0.9-0.7 0.9-0.7 2.7zm18.3 0h-1.9v-7.4q0-1.7-0.5-2.3-0.4-0.7-1.6-0.7-1.3 0-2 1-0.7 0.9-0.7 2.6v6.8h-1.9v-9.2q0-2-0.1-2.5h1.8q0 0.1 0.1 0.3 0 0.3 0 0.6 0 0.3 0 1.1h0.1q0.6-1.2 1.4-1.7 0.8-0.5 1.9-0.5 1.4 0 2.1 0.6 0.8 0.5 1.1 1.6 0.6-1.1 1.5-1.7 0.8-0.5 2.1-0.5 1.7 0 2.5 1 0.8 0.9 0.8 3.1v7.8h-1.9v-7.4q0-1.7-0.4-2.3-0.5-0.7-1.7-0.7-1.3 0-2 1-0.7 0.9-0.7 2.6zm11.6-14.1h-2v-1.8h2zm0 14.1h-2v-11.6h2zm7.4-1.6v1.5q-0.9 0.2-1.9 0.2-2.4 0-2.4-2.6v-7.8h-1.3v-1.4h1.4l0.6-2.6h1.3v2.6h2.1v1.4h-2.1v7.4q0 0.8 0.2 1.2 0.3 0.3 1 0.3 0.4 0 1.1-0.2zm10.4-1.7q0 1.7-1.3 2.6-1.2 0.9-3.4 0.9-2.2 0-3.4-0.7-1.2-0.8-1.5-2.3l1.7-0.3q0.2 0.9 1 1.4 0.8 0.4 2.2 0.4 1.4 0 2.1-0.4 0.7-0.5 0.7-1.4 0-0.7-0.5-1.1-0.4-0.4-1.5-0.7l-1.4-0.4q-1.6-0.4-2.4-0.8-0.7-0.5-1.1-1-0.4-0.6-0.4-1.5 0-1.6 1.2-2.4 1.1-0.8 3.3-0.8 1.9 0 3 0.6 1.2 0.7 1.5 2.2l-1.8 0.2q-0.1-0.8-0.8-1.2-0.7-0.4-1.9-0.4-1.3 0-1.9 0.4-0.7 0.4-0.7 1.2 0 0.5 0.3 0.8 0.2 0.4 0.7 0.6 0.6 0.2 2.2 0.6 1.5 0.4 2.2 0.7 0.7 0.3 1.1 0.7 0.4 0.4 0.6 1 0.2 0.5 0.2 1.1zm11 3.3h-2.1v-15.2h2.1zm12.8 0h-1.9v-7.3q0-1.2-0.3-1.8-0.2-0.7-0.7-0.9-0.5-0.3-1.4-0.3-1.4 0-2.2 0.9-0.8 1-0.8 2.7v6.7h-2v-9.1q0-2 0-2.5h1.8q0 0.1 0 0.3 0 0.2 0 0.5 0.1 0.3 0.1 1.2 0.7-1.2 1.5-1.7 0.9-0.5 2.2-0.5 1.9 0 2.8 0.9 0.9 1 0.9 3.2zm20.1-13.5h-5.2v13.5h-2.1v-13.5h-5.2v-1.7h12.5zm3.9 3.9q0.6-1.2 1.5-1.7 0.9-0.5 2.2-0.5 1.9 0 2.8 0.9 0.9 0.9 0.9 3.2v7.7h-1.9v-7.4q0-1.2-0.3-1.8-0.2-0.6-0.7-0.9-0.5-0.2-1.4-0.2-1.4 0-2.2 0.9-0.9 0.9-0.9 2.5v6.9h-1.9v-15.9h1.9v4.1q0 0.7 0 1.4 0 0.7 0 0.8zm20.1 4.2h-8.3q0 2 0.8 3.1 0.8 1.1 2.4 1.1 1.3 0 2-0.5 0.8-0.5 1.1-1.3l1.7 0.5q-1.1 2.7-4.8 2.7-2.5 0-3.9-1.5-1.3-1.6-1.3-4.6 0-2.9 1.3-4.4 1.4-1.5 3.9-1.5 5.1 0 5.1 6.1zm-8.3-1.4h6.3q-0.2-1.9-1-2.7-0.7-0.9-2.2-0.9-1.4 0-2.2 1-0.8 0.9-0.9 2.6zm26.9 6.8h-9.7v-15.1h2v13.5h7.7zm5.2 0.2q-1.8 0-2.7-0.9-0.9-1-0.9-2.6 0-1.8 1.2-2.7 1.2-1 3.9-1.1h2.6v-0.7q0-1.4-0.6-2-0.6-0.6-1.9-0.6-1.3 0-1.9 0.4-0.6 0.5-0.7 1.4l-2-0.1q0.5-3.2 4.6-3.2 2.2 0 3.3 1 1.1 1 1.1 2.9v5q0 0.9 0.2 1.3 0.3 0.5 0.9 0.5 0.3 0 0.6-0.1v1.2q-0.7 0.2-1.5 0.2-1 0-1.5-0.6-0.5-0.6-0.6-1.8-0.8 1.4-1.8 1.9-0.9 0.6-2.3 0.6zm0.4-1.5q1.1 0 1.9-0.5 0.8-0.4 1.3-1.3 0.5-0.8 0.5-1.7v-1l-2.1 0.1q-1.4 0-2.1 0.3-0.7 0.2-1.1 0.7-0.4 0.6-0.4 1.5 0 0.9 0.5 1.4 0.5 0.5 1.5 0.5zm17.5-1.9q0 1.6-1.2 2.5-1.2 0.9-3.5 0.9-2.1 0-3.3-0.7-1.2-0.7-1.5-2.3l1.7-0.3q0.2 0.9 1 1.4 0.8 0.4 2.1 0.4 1.5 0 2.2-0.4 0.7-0.5 0.7-1.4 0-0.7-0.5-1.1-0.5-0.4-1.5-0.7l-1.4-0.4q-1.7-0.4-2.4-0.8-0.7-0.4-1.1-1-0.4-0.6-0.4-1.5 0-1.6 1.1-2.4 1.2-0.8 3.4-0.8 1.9 0 3 0.6 1.1 0.7 1.4 2.2l-1.7 0.2q-0.2-0.7-0.9-1.2-0.7-0.4-1.8-0.4-1.4 0-2 0.4-0.6 0.4-0.6 1.2 0 0.5 0.3 0.8 0.2 0.4 0.7 0.6 0.5 0.2 2.1 0.6 1.6 0.4 2.3 0.7 0.6 0.4 1 0.8 0.4 0.3 0.6 0.9 0.2 0.5 0.2 1.2zm6.8 1.7v1.4q-1 0.2-2 0.2-2.3 0-2.3-2.6v-7.7h-1.3v-1.5h1.4l0.6-2.6h1.3v2.6h2.1v1.5h-2.1v7.3q0 0.8 0.2 1.2 0.3 0.3 1 0.3 0.4 0 1.1-0.1zm22.8 1.5h-1.9v-10.1q0-1.7 0.1-3.3-0.5 2-0.9 3.1l-3.9 10.3h-1.5l-3.9-10.3-0.6-1.9-0.4-1.2 0.1 1.2v2.1 10.1h-1.8v-15.2h2.7l4 10.5q0.2 0.7 0.4 1.4 0.2 0.7 0.3 1 0.1-0.4 0.3-1.3 0.3-0.8 0.4-1.1l4-10.5h2.6zm13.1-5.8q0 3.1-1.3 4.6-1.4 1.4-3.9 1.4-2.6 0-3.9-1.5-1.3-1.6-1.3-4.5 0-6 5.2-6 2.7 0 3.9 1.5 1.3 1.4 1.3 4.5zm-2 0q0-2.4-0.7-3.5-0.8-1.1-2.4-1.1-1.7 0-2.5 1.1-0.8 1.1-0.8 3.5 0 2.3 0.8 3.5 0.7 1.1 2.3 1.1 1.8 0 2.5-1.1 0.8-1.1 0.8-3.5zm13.7 5.8h-1.9v-7.3q0-1.2-0.2-1.8-0.3-0.7-0.8-0.9-0.4-0.3-1.4-0.3-1.4 0-2.2 0.9-0.8 1-0.8 2.7v6.7h-1.9v-9.1q0-2-0.1-2.5h1.8q0 0.1 0 0.3 0 0.2 0.1 0.5 0 0.3 0 1.2 0.7-1.2 1.6-1.7 0.9-0.5 2.2-0.5 1.9 0 2.7 1 0.9 0.9 0.9 3.1zm7.4-1.5v1.4q-0.9 0.3-1.9 0.3-2.4 0-2.4-2.7v-7.7h-1.3v-1.4h1.4l0.6-2.6h1.3v2.6h2.1v1.4h-2.1v7.3q0 0.8 0.2 1.2 0.3 0.3 1 0.3 0.4 0 1.1-0.1zm3.5-8.1h0.1q0.6-1.2 1.5-1.7 0.9-0.6 2.2-0.6 1.9 0 2.8 1 0.9 0.9 0.9 3.1v7.8h-2v-7.4q0-1.2-0.2-1.8-0.2-0.6-0.7-0.9-0.5-0.3-1.5-0.3-1.3 0-2.1 1-0.9 0.9-0.9 2.5v6.9h-1.9v-16h1.9v4.2q0 0.6 0 1.3 0 0.7-0.1 0.9z"/>
	<g id="Layer">
		<g id="Layer">
			<g id="Layer">
				<path id="Layer" fill-rule="evenodd" class="s2" d="m33.8 160.5h281.7"/>
				<g id="Layer">
					<path id="Layer" class="s3" d="m41.4 160v6"/>
					<path id="7" class="s4" aria-label="7"  d="m69 169.5v-0.8h4.7v0.4l-2.6 6.9h-1.1l2.5-6.5z"/>
				</g>
				<g id="Layer">
					<path id="Layer" class="s3" d="m111.1 160v6"/>
					<path id="14" class="s4" aria-label="14"  d="m133.9 175v-0.8h1.5v-5.1l-1.6 0.4v-0.9l1.6-0.3h0.9v5.9h1.4v0.8zm8.2-2.3v-3.6l-2.3 3.6zm-3-0.1l2.8-4.3h1.1v4.4h1v0.7h-1v1.6h-0.9v-1.6h-3z"/>
				</g>
				<g id="Layer">
					<path id="Layer" class="s3" d="m180.8 160v6"/>
					<path id="21" class="s5" aria-label="21"  d="m204.4 175.2h3.4v0.8h-4.6v-0.8q0.5-0.6 1.5-1.6 1-1 1.2-1.3 0.5-0.5 0.7-0.9 0.2-0.3 0.2-0.7 0-0.6-0.4-0.9-0.4-0.4-1.1-0.4-0.5 0-1 0.2-0.5 0.1-1.1 0.5v-1q0.6-0.3 1.1-0.4 0.6-0.1 1-0.1 1.1 0 1.8 0.5 0.7 0.6 0.7 1.6 0 0.4-0.2 0.8-0.2 0.4-0.6 1-0.1 0.1-0.8 0.8-0.6 0.7-1.8 1.9zm5.6 0.8v-0.8h1.7v-5.6l-1.8 0.4v-0.9l1.8-0.4h0.9v6.5h1.6v0.8z"/>
				</g>
				<g id="Layer">
					<path id="Layer" class="s3" d="m250.5 160v6"/>
					<path id="28" class="s4" aria-label="28"  d="m276.1 175.2h3.4v0.8h-4.6v-0.8q0.6-0.6 1.5-1.6 1-1 1.2-1.3 0.5-0.5 0.7-0.9 0.2-0.3 0.2-0.7 0-0.6-0.4-0.9-0.4-0.4-1.1-0.4-0.4 0-1 0.2-0.5 0.1-1.1 0.5v-1q0.6-0.3 1.2-0.4 0.5-0.1 0.9-0.1 1.1 0 1.8 0.5 0.7 0.6 0.7 1.6 0 0.4-0.2 0.8-0.2 0.4-0.6 1-0.1 0.1-0.8 0.8-0.6 0.7-1.8 1.9zm7.6-2.7q-0.7 0-1.1 0.4-0.4 0.4-0.4 1 0 0.7 0.4 1.1 0.4 0.4 1.1 0.4 0.7 0 1.1-0.4 0.4-0.4 0.4-1.1 0-0.6-0.4-1-0.4-0.4-1.1-0.4zm-1-0.4q-0.6-0.1-1-0.6-0.3-0.4-0.3-1 0-0.9 0.6-1.4 0.6-0.5 1.7-0.5 1.1 0 1.7 0.5 0.6 0.5 0.6 1.4 0 0.6-0.3 1-0.4 0.5-1 0.6 0.7 0.2 1.1 0.7 0.4 0.5 0.4 1.1 0 1.1-0.7 1.7-0.6 0.5-1.8 0.5-1.2 0-1.9-0.5-0.6-0.6-0.6-1.7 0-0.6 0.4-1.1 0.4-0.5 1.1-0.7zm-0.4-1.5q0 0.5 0.4 0.8 0.4 0.4 1 0.4 0.6 0 1-0.4 0.3-0.3 0.3-0.8 0-0.6-0.3-0.9-0.4-0.3-1-0.3-0.6 0-1 0.3-0.4 0.3-0.4 0.9z"/>
				</g>
				<g id="Layer">
					<path id="Layer" class="s3" d="m308.6 160v6"/>
				</g>
			</g>
			<g id="Layer">
				<path id="Layer" fill-rule="evenodd" class="s6" d="m27.8 160.5h6.5v-100h-6.5"/>
				<g id="Layer">
				</g>
				<g id="Layer">
				</g>
				<g id="Layer">
				</g>
				<g id="Layer">
				</g>
				<g id="Layer">
				</g>
				<g id="Layer">
				</g>
				<g id="Layer">
				</g>
			</g>
			<path id="Layer" class="s1" d="m36.2 160h10.4-10.4z"/>
			<path id="Layer" class="s1" d="m47.8 160h10.4-10.4z"/>
			<path id="Layer" class="s1" d="m59.4 160h10.5-10.5z"/>
			<path id="Layer" class="s1" d="m71 160h10.5-10.5z"/>
			<path id="Layer" class="s1" d="m82.6 160h10.5-10.5z"/>
			<path id="Layer" class="s1" d="m94.3 160h10.4-10.4z"/>
			<g id="Folder 2">
			</g>
			<g id="Folder 1">
				<path id="Layer" class="s1" d="m50.5 159.1h-10.5v-69.4h10.5z"/>
				<path id="Layer copy" class="s1" d="m50.5 159.1h-10.5v-69.4h10.5z"/>
				<path id="Layer copy 2" class="s1" d="m50.5 159.1h-10.5v-69.4h10.5z"/>
				<path id="Layer copy 3" class="s1" d="m50.5 159.1h-10.5v-69.4h10.5z"/>
				<path id="Layer copy 4" class="s1" d="m50.5 159.1h-10.5v-69.4h10.5z"/>
				<path id="Layer copy 5" class="s1" d="m50.5 159.1h-10.5v-69.4h10.5z"/>
				<path id="Layer copy 6" class="s1" d="m50.5 159.1h-10.5v-69.4h10.5z"/>
				<path id="Layer copy 7" class="s1" d="m50.5 159.1h-10.5v-69.4h10.5z"/>
				<path id="Layer copy 8" class="s1" d="m50.5 159.1h-10.5v-69.4h10.5z"/>
				<path id="Layer copy 9" class="s1" d="m50.5 159.1h-10.5v-69.4h10.5z"/>
				<path id="Layer copy 10" class="s1" d="m50.5 159.1h-10.5v-69.4h10.5z"/>
				<path id="Layer copy 11" class="s1" d="m50.5 159.1h-10.5v-69.4h10.5z"/>
				<path id="Layer copy 12" class="s1" d="m50.5 159.1h-10.5v-69.4h10.5z"/>
				<path id="Layer copy 13" class="s1" d="m50.5 159.1h-10.5v-69.4h10.5z"/>
				<path id="Layer copy 14" class="s1" d="m50.5 159.1h-10.5v-69.4h10.5z"/>
				<path id="Layer copy 16" class="s1" d="m75.5 159.1h-10.5v-69.4h10.5z"/>
				<path id="Layer copy 17" class="s1" d="m91.5 159.1h-10.5v-69.4h10.5z"/>
				<path id="Layer copy 18" class="s1" d="m107.5 159.1h-10.5v-69.4h10.5z"/>
				<path id="Layer copy 19" class="s1" d="m124.5 159.1h-10.5v-69.4h10.5z"/>
				<path id="Layer copy 20" class="s1" d="m141.5 159.1h-10.5v-69.4h10.5z"/>
				<path id="Layer copy 21" class="s1" d="m158.5 159.1h-10.5v-69.4h10.5z"/>
				<path id="Layer copy 22" class="s1" d="m174.5 159.1h-10.5v-69.4h10.5z"/>
				<path id="Layer copy 23" class="s1" d="m227.5 159.1h-10.5v-69.4h10.5z"/>
				<path id="Layer copy 24" class="s1" d="m259.5 159.1h-10.5v-69.4h10.5z"/>
				<path id="Layer copy 25" class="s1" d="m275.5 159.1h-10.5v-69.4h10.5z"/>
				<path id="Layer copy 26" class="s1" d="m291.5 159.1h-10.5v-69.4h10.5z"/>
				<path id="Layer copy 27" class="s1" d="m309.5 159.1h-10.5v-69.4h10.5z"/>
				<path id="Layer copy 28" class="s1" d="m325.5 159.1h-10.5v-69.4h10.5z"/>
			</g>
			<path id="Layer" class="s1" d="m164 160h10.4-10.4z"/>
			<path id="Layer" class="s1" d="m175.6 160h10.4-10.4z"/>
			<path id="Layer" class="s1" d="m198.8 160h10.5-10.5z"/>
			<path id="Layer" class="s1" d="m234.1 59h10.4v100h-10.4z"/>
			<path id="Layer copy 29" class="s1" d="m183.1 59h10.4v100h-10.4z"/>
			<path id="Layer copy 30" class="s1" d="m201.1 59h10.4v100h-10.4z"/>
			<path id="Layer" class="s1" d="m256.9 160h10.5-10.5z"/>
			<path id="Layer" class="s1" d="m280.1 160h10.5-10.5z"/>
			<path id="Layer" class="s1" d="m291.8 160h10.4-10.4z"/>
			<path id="Layer" class="s1" d="m303.4 160h10.4-10.4z"/>
			<g id="Layer">
				<path id="per day" class="s7" aria-label="per day"  d="m303.1 188.3q0 2.8-1.9 2.8-1.2 0-1.6-0.9h-0.1q0.1 0 0.1 0.8v2.1h-0.9v-6.3q0-0.8-0.1-1.1h0.9q0 0 0 0.2 0 0.1 0 0.3 0 0.3 0 0.4h0.1q0.2-0.5 0.6-0.7 0.4-0.3 1-0.3 1 0 1.5 0.7 0.4 0.6 0.4 2zm-0.9 0.1q0-1.2-0.3-1.6-0.3-0.5-0.9-0.5-0.5 0-0.8 0.2-0.3 0.2-0.5 0.7-0.1 0.5-0.1 1.2 0 1.1 0.3 1.6 0.3 0.4 1.1 0.4 0.6 0 0.9-0.4 0.3-0.5 0.3-1.6zm6.5 0.1h-3.8q0 1 0.4 1.4 0.4 0.5 1.1 0.5 0.6 0 0.9-0.2 0.3-0.2 0.5-0.6l0.7 0.2q-0.4 1.3-2.1 1.3-1.2 0-1.8-0.7-0.6-0.7-0.6-2.1 0-1.3 0.6-2 0.6-0.7 1.7-0.7 2.4 0 2.4 2.8zm-3.8-0.6h2.9q-0.1-0.9-0.5-1.3-0.3-0.3-1-0.3-0.6 0-1 0.4-0.4 0.4-0.4 1.2zm5.8 3.1h-0.9v-4.1q0-0.5 0-1.2h0.8q0.1 0.9 0.1 1.1 0.2-0.7 0.5-0.9 0.2-0.3 0.7-0.3 0.2 0 0.4 0.1v0.8q-0.2-0.1-0.5-0.1-0.5 0-0.8 0.5-0.3 0.4-0.3 1.3zm8.6-0.8h-0.1q-0.2 0.5-0.6 0.7-0.4 0.2-1 0.2-1 0-1.5-0.6-0.4-0.7-0.4-2.1 0-2.8 1.9-2.8 0.6 0 1 0.3 0.4 0.2 0.6 0.7v-0.6-2.2h0.9v6.1q0 0.9 0 1.1h-0.8q0 0 0-0.3 0-0.3 0-0.5zm-2.7-1.8q0 1.1 0.3 1.6 0.3 0.4 0.9 0.4 0.8 0 1.1-0.5 0.3-0.5 0.3-1.6 0-1-0.3-1.5-0.3-0.5-1.1-0.5-0.6 0-0.9 0.5-0.3 0.5-0.3 1.6zm6.2 2.7q-0.8 0-1.2-0.4-0.4-0.4-0.4-1.1 0-0.9 0.6-1.3 0.5-0.4 1.7-0.5h1.2v-0.3q0-0.6-0.3-0.9-0.3-0.3-0.8-0.3-0.6 0-0.9 0.2-0.3 0.2-0.3 0.7l-0.9-0.1q0.2-1.5 2.1-1.5 1 0 1.5 0.5 0.5 0.5 0.5 1.3v2.3q0 0.4 0.1 0.6 0.1 0.2 0.4 0.2 0.1 0 0.3 0v0.5q-0.4 0.1-0.7 0.1-0.5 0-0.7-0.3-0.3-0.2-0.3-0.8-0.4 0.6-0.8 0.9-0.4 0.2-1.1 0.2zm0.2-0.6q0.5 0 0.9-0.3 0.3-0.2 0.6-0.6 0.2-0.3 0.2-0.7v-0.5h-1q-0.6 0.1-0.9 0.2-0.3 0.1-0.5 0.3-0.2 0.3-0.2 0.7 0 0.4 0.3 0.6 0.2 0.3 0.6 0.3zm4.3 2.6q-0.4 0-0.6 0v-0.7q0.2 0 0.4 0 0.8 0 1.3-1.2l0.1-0.2-2.1-5.3h0.9l1.1 3q0.1 0 0.1 0.1 0 0.1 0.2 0.7 0.2 0.5 0.2 0.6l0.3-1 1.2-3.4h0.9l-2 5.3q-0.3 0.9-0.6 1.3-0.3 0.4-0.6 0.6-0.4 0.2-0.8 0.2z"/>
			</g>
		</g>
	</g>
</svg>